<?xml version="1.0" encoding="UTF-8" standalone="no"?>
<svg
   xmlns:dc="http://purl.org/dc/elements/1.1/"
   xmlns:cc="http://creativecommons.org/ns#"
   xmlns:rdf="http://www.w3.org/1999/02/22-rdf-syntax-ns#"
   xmlns:svg="http://www.w3.org/2000/svg"
   xmlns="http://www.w3.org/2000/svg"
   xmlns:sodipodi="http://sodipodi.sourceforge.net/DTD/sodipodi-0.dtd"
   xmlns:inkscape="http://www.inkscape.org/namespaces/inkscape"
   id="ff41f38c-6ef4-4d72-b305-d437d63a9edd"
   data-name="Layer 1"
   width="120mm"
   height="120mm"
   viewBox="0 0 453.5433 453.5433"
   version="1.1"
   sodipodi:docname="icon.svg"
   inkscape:version="1.0.1 (3bc2e813f5, 2020-09-07)">
  <metadata
     id="metadata929">
    <rdf:RDF>
      <cc:Work
         rdf:about="">
        <dc:format>image/svg+xml</dc:format>
        <dc:type
           rdf:resource="http://purl.org/dc/dcmitype/StillImage" />
        <dc:title></dc:title>
      </cc:Work>
    </rdf:RDF>
  </metadata>
  <defs
     id="defs927" />
  <sodipodi:namedview
     pagecolor="#ffffff"
     bordercolor="#666666"
     borderopacity="1"
     objecttolerance="10"
     gridtolerance="10"
     guidetolerance="10"
     inkscape:pageopacity="0"
     inkscape:pageshadow="2"
     inkscape:window-width="1366"
     inkscape:window-height="745"
     id="namedview925"
     showgrid="false"
     inkscape:zoom="0.87842466"
     inkscape:cx="528.68734"
     inkscape:cy="205.63839"
     inkscape:window-x="-8"
     inkscape:window-y="-8"
     inkscape:window-maximized="1"
     inkscape:current-layer="ff41f38c-6ef4-4d72-b305-d437d63a9edd"
     units="mm"
     height="800mm"
     inkscape:lockguides="false" />
  <path
     d="m 227.57062,430.91909 a 75.18955,75.18955 0 0 1 -18.63955,-2.41115 l -1.19992,-0.332 -1.11309,-0.55768 c -40.242,-20.17656 -74.192,-46.827 -100.90712,-79.21137 A 299.86458,299.86458 0 0 1 54.761778,257.93675 348.20978,348.20978 0 0 1 35.070918,135.27222 c 0.017,-0.87611 0.0314,-1.55256 0.0314,-2.01861 0,-20.28912 11.262,-38.091301 28.69121,-45.353571 13.33947,-5.55813 134.455392,-55.30526 143.206322,-58.89963 16.48038,-8.25772 34.062,-1.36535 36.87554,-0.16006 6.31094,2.58025 118.2752,48.375 142.47062,59.89621 24.93578,11.874151 31.5889,33.205661 31.5889,43.937871 0,48.58822 -8.415,93.99778 -25.01129,134.9674 a 312.51684,312.51684 0 0 1 -56.16213,90.51087 c -45.84677,51.59381 -91.7057,69.8841 -92.14828,70.0453 a 50.11,50.11 0 0 1 -17.04258,2.72109 z m -10.78453,-26.71374 c 3.97586,0.89138 13.12949,2.22845 19.0957,0.052 7.57929,-2.76408 45.96243,-22.668 81.83036,-63.03189 49.55709,-55.769 74.70242,-125.87542 74.73919,-208.37177 -0.0885,-1.67134 -1.27542,-13.59188 -17.06153,-21.10867 C 351.66356,100.44669 235.28625,52.860139 234.11345,52.380519 l -0.32154,-0.13631 c -2.43886,-1.022 -10.20055,-3.1747 -15.55082,-0.371 l -1.07124,0.49943 c -1.2972,0.53279 -129.863172,53.337541 -143.574812,59.050641 -9.59168,3.99651 -13.00917,13.89729 -13.00917,21.83037 0,0.57973 -0.015,1.423 -0.0362,2.51294 -1.09585,56.44716 11.96634,195.34603 156.236412,268.43876 z"
     fill="#3f3d56"
     id="path890" />
  <path
     d="m 212.3289,40.586109 c 0,0 -129.734502,53.28381 -143.634652,59.07553 -13.90015,5.791721 -20.85019,19.691841 -20.85019,33.592001 0,13.90016 -10.42506,195.27813 164.484842,282.97404 0,0 15.87478,4.39241 27.91882,0 12.04404,-4.39241 164.9454,-78.52642 164.9454,-283.55325 0,0 0,-20.85018 -24.32522,-32.43362 C 356.54268,88.657369 238.93432,40.586109 238.93432,40.586109 c 0,0 -14.44282,-6.37089 -26.60542,0 z"
     fill="#0080f0"
     id="path892" />
  <path
     d="M 226.22902,82.286479 V 366.53673 c 0,0 -130.892842,-63.0066 -129.734492,-228.64973 z"
     opacity="0.1"
     id="path894" />
  <polygon
     points="192.931,261.581 151.235,207.969 175.483,189.11 195.226,214.494 261.921,144.088 284.224,165.219 "
     fill="#ffffff"
     id="polygon896"
     transform="translate(35.005018,25)" />
</svg>
